<svg width="690" height="240" xmlns="http://www.w3.org/2000/svg" viewBox="0 0 690 240">
 <metadata id="metadata8">image/svg+xml</metadata>
 <defs>
  <clipPath clipPathUnits="userSpaceOnUse" id="clipPath18">
   <path d="m-172.5,824.03l841.89,0l0,-595.28l-841.89,0l0,595.28z" id="path16"/>
  </clipPath>
 </defs>
 <g>
  <title>background</title>
  <rect fill="none" id="canvas_background" height="242" width="692" y="-1" x="-1"/>
 </g>
 <g>
  <title>Layer 1</title>
  <g id="g10" transform="matrix(1.3333333,0,0,-1.3333333,0,793.70667) ">
   <g id="g12">
    <g id="g14" clip-path="url(#clipPath18)">
     <g id="g20">
      <path fill="#e9af00" fill-rule="nonzero" d="m171.35059,542.57419c0,-16.765 13.592,-30.357 30.357,-30.357c16.766,0 30.357,13.592 30.357,30.357c0,16.766 -13.591,30.357 -30.357,30.357c-16.765,0 -30.357,-13.591 -30.357,-30.357" id="path22"/>
     </g>
     <g id="g24">
      <path fill="#e9af00" fill-rule="nonzero" d="m204.92291,573.8862c0,-3.778 -5.744,-3.778 -5.744,0c0,3.809 5.744,3.809 5.744,0m0.25,12.706c-0.094,1.717 -1.499,2.873 -3.341,2.873c-1.717,0 -3.059,-0.687 -3.246,-1.967c-0.531,-3.528 5.837,-1.967 5.931,-9.241l-4.839,0c0,4.838 -7.305,3.839 -6.088,10.271c0.719,3.465 3.934,5.151 8.242,5.151c4.777,0 8.18,-2.529 8.211,-7.087l-4.87,0z" id="path26"/>
     </g>
     <g id="g28">
      <path fill="#e9af00" fill-rule="nonzero" d="m181.7236,565.6123c2.75,-2.592 -1.19,-6.771 -3.94,-4.18c-2.771,2.612 1.169,6.791 3.94,4.18m-9.075,8.896c-1.315,1.11 -3.118,0.88 -4.382,-0.46c-1.177,-1.25 -1.598,-2.698 -0.795,-3.712c2.203,-2.806 5.435,2.899 10.793,-2.021l-3.319,-3.521c-3.521,3.318 -7.805,-2.684 -11.65,2.613c-2.029,2.9 -1.051,6.395 1.904,9.531c3.276,3.476 7.45,4.218 10.789,1.115l-3.34,-3.545z" id="path30"/>
     </g>
     <g id="g32">
      <path fill="#e9af00" fill-rule="nonzero" d="m236.61911,568.15921c1.109,1.314 0.88,3.118 -0.461,4.382c-1.25,1.177 -2.697,1.597 -3.712,0.795c-2.806,-2.203 2.9,-5.435 -2.02,-10.793l-3.522,3.319c3.319,3.521 -2.683,7.805 2.613,11.65c2.901,2.029 6.396,1.051 9.532,-1.904c3.475,-3.276 4.217,-7.45 1.115,-10.789l-3.545,3.34zm-8.896,-9.075c-2.592,-2.75 -6.772,1.19 -4.18,3.94c2.611,2.771 6.791,-1.169 4.18,-3.94" id="path34"/>
     </g>
     <g id="g36">
      <path fill="#e9af00" fill-rule="nonzero" d="m198.49219,511.7637c0,3.777 5.744,3.777 5.744,0c0,-3.809 -5.744,-3.809 -5.744,0m-0.25,-12.707c0.094,-1.717 1.499,-2.872 3.341,-2.872c1.717,0 3.059,0.686 3.246,1.967c0.531,3.528 -5.837,1.966 -5.931,9.241l4.839,0c0,-4.839 7.305,-3.84 6.088,-10.272c-0.719,-3.464 -3.934,-5.15 -8.242,-5.15c-4.777,0 -8.18,2.528 -8.211,7.086l4.87,0z" id="path38"/>
     </g>
     <g id="g40">
      <path fill="#e9af00" fill-rule="nonzero" d="m231.18509,510.47269c1.314,-1.109 3.118,-0.88 4.382,0.461c1.177,1.25 1.597,2.697 0.795,3.712c-2.203,2.806 -5.435,-2.9 -10.793,2.02l3.319,3.522c3.521,-3.319 7.805,2.683 11.65,-2.613c2.029,-2.901 1.051,-6.396 -1.904,-9.532c-3.276,-3.475 -7.45,-4.217 -10.789,-1.115l3.34,3.545zm-9.075,8.896c-2.75,2.592 1.19,6.772 3.94,4.18c2.771,-2.611 -1.169,-6.791 -3.94,-4.18" id="path42"/>
     </g>
     <g id="g44">
      <path fill="#e9af00" fill-rule="nonzero" d="m176.1113,524.5625c2.592,2.75 6.771,-1.189 4.18,-3.939c-2.612,-2.772 -6.791,1.168 -4.18,3.939m-8.896,-9.074c-1.11,-1.315 -0.88,-3.119 0.46,-4.383c1.25,-1.177 2.698,-1.598 3.712,-0.795c2.806,2.203 -2.899,5.436 2.021,10.793l3.521,-3.318c-3.318,-3.522 2.684,-7.805 -2.613,-11.651c-2.9,-2.029 -6.395,-1.051 -9.531,1.905c-3.476,3.275 -4.218,7.45 -1.115,10.789l3.545,-3.34z" id="path46"/>
     </g>
     <g id="g48">
      <path fill="#5a5a5d" fill-rule="nonzero" d="m306.32129,527.6738c-3.538,-3.447 -8.239,-5.17 -12.891,-5.17c-11.93,0 -18.148,8.124 -18.198,17.431c-0.101,9.208 6.066,17.824 18.198,17.824c4.652,0 9.353,-1.723 12.891,-5.169l-1.87,-1.576c-3.033,2.954 -7.027,4.382 -11.021,4.382c-10.312,0 -15.62,-7.091 -15.57,-15.363c0.101,-8.075 5.358,-15.067 15.57,-15.067c3.994,0 8.038,1.477 11.072,4.382l1.819,-1.674z" id="path50"/>
     </g>
     <g id="g52">
      <path fill="#5a5a5d" fill-rule="nonzero" d="m313.14749,540.13181c0.051,-7.78 5.106,-15.363 15.166,-15.363c10.11,0 15.217,7.583 15.217,15.363c0,7.977 -5.056,15.313 -15.217,15.313c-10.161,0 -15.216,-7.188 -15.166,-15.313m33.011,-0.05c-0.05,-9.059 -5.965,-17.775 -17.845,-17.775c-11.88,0 -17.845,8.764 -17.845,17.874c0,9.257 5.914,17.726 17.845,17.726c11.931,0 17.896,-8.518 17.845,-17.825" id="path54"/>
     </g>
     <g id="g56">
      <path fill="#5a5a5d" fill-rule="nonzero" d="m381.09277,557.36569l-14.559,-34.567l-2.932,0l-14.559,34.567l2.932,0l13.094,-31.514l13.092,31.514l2.932,0z" id="path58"/>
     </g>
     <path fill="#5a5a5d" fill-rule="nonzero" d="m387.615,557.366l2.679,0l0,-34.468l-2.679,0l0,34.468z" id="path60"/>
     <g id="g62">
      <path fill="#5a5a5d" fill-rule="nonzero" d="m403.03418,554.85449l0,-29.396l9.251,0c10.516,0 15.368,7.681 15.217,15.067c-0.153,7.189 -5.005,14.329 -15.217,14.329l-9.251,0zm27.197,-14.329c0.202,-8.765 -5.56,-17.628 -17.946,-17.628l-11.98,0l0,34.468l11.98,0c11.981,0 17.744,-8.371 17.946,-16.84" id="path64"/>
     </g>
     <path fill="#5a5a5d" fill-rule="nonzero" d="m436.704,538.211l17.693,0l0,-2.462l-17.693,0l0,2.462z" id="path66"/>
     <g id="g68">
      <path fill="#5a5a5d" fill-rule="nonzero" d="m460.00983,525.21191l6.875,0l0,29.15l-6.521,-1.576l0,2.315l9.251,2.265l0,-32.154l6.926,0l0,-2.314l-16.531,0l0,2.314z" id="path70"/>
     </g>
     <g id="g72">
      <path fill="#5a5a5d" fill-rule="nonzero" d="m483.21393,547.2222c0,-6.106 6.066,-8.223 11.121,-8.223c5.056,0 11.223,2.511 11.274,8.174c0.05,6.204 -6.168,8.174 -11.223,8.174c-5.056,0 -11.172,-1.822 -11.172,-8.125m22.495,-5.761c-2.83,-3.94 -6.975,-4.875 -11.374,-4.875c-6.673,0 -13.801,3.004 -13.801,10.636c0,7.829 7.179,10.636 13.852,10.636c6.724,0 13.952,-2.955 13.952,-10.735l0,-15.068c0,-6.499 -6.724,-9.551 -13.446,-9.551c-7.078,0 -13.043,2.905 -13.498,8.715l2.729,0c0.304,-4.136 4.955,-6.352 10.769,-6.352c5.358,0 10.817,2.413 10.817,7.188l0,9.406z" id="path74"/>
     </g>
     <path fill="#151344" fill-rule="nonzero" d="m0.945,559.172l7.836,0l0,-35.387l-7.836,0l0,35.387z" id="path76"/>
     <g id="g78">
      <path fill="#151344" fill-rule="nonzero" d="m47.15041,528.082c-3.64,-3.589 -8.341,-5.207 -13.599,-5.207c-13.497,0 -18.856,8.695 -18.906,18.351c-0.051,9.149 5.914,18.754 18.906,18.754c4.853,0 9.353,-1.87 12.993,-5.459l-4.955,-4.904c-2.123,2.073 -5.207,2.932 -8.038,2.932c-8.038,0 -11.172,-6.217 -11.121,-11.374c0.051,-5.156 2.831,-11.021 11.121,-11.021c2.831,0 6.572,1.265 8.696,3.388l4.903,-5.46z" id="path80"/>
     </g>
     <g id="g82">
      <path fill="#151344" fill-rule="nonzero" d="m67.8779,551.1846l-6.116,-14.356l12.182,0l-6.066,14.356zm9.049,-21.333l-18.148,0l-2.578,-6.066l-8.493,0l15.873,35.386l8.595,0l15.873,-35.386l-8.543,0l-2.579,6.066z" id="path84"/>
     </g>
     <g id="g86">
      <path fill="#151344" fill-rule="nonzero" d="m122.57809,548.35349l-10.919,-13.75l-1.416,0l-10.565,13.851l0,-24.72l-7.886,0l0,35.387l9.049,0l10.312,-13.599l10.363,13.599l8.948,0l0,-35.387l-7.886,0l0,24.619z" id="path88"/>
     </g>
     <g id="g90">
      <path fill="#151344" fill-rule="evenodd" d="m337.04489,540.29489c0,-4.718 -3.825,-8.545 -8.545,-8.545c-4.718,0 -8.545,3.827 -8.545,8.545c0,4.719 3.827,8.545 8.545,8.545c4.72,0 8.545,-3.826 8.545,-8.545" id="path92"/>
     </g>
     <path fill="#151344" fill-rule="evenodd" d="m326.744,516.462l4.05,0l0,6.833l-4.05,0l0,-6.833z" id="path94"/>
     <g id="g96">
      <path fill="#151344" fill-rule="evenodd" d="m326.74411,498.29489l0.043,0c-0.236,-40.083 -30.666,-72.5 -68.177,-72.5c-22.022,0 -41.271,16.584 -53.718,34.254c0.258,0.737 0.362,1.4 0.301,1.631c-0.082,-0.022 -0.166,-0.045 -0.247,-0.066c0.132,0.194 0.213,0.193 0.247,0.066c0.49,0.131 0.989,0.269 1.496,0.383c7.055,1.573 12.481,5.347 15.913,11.461c3.149,4.214 28.916,38.063 31.589,45.579c2.92,8.206 2.277,16.338 -3.967,23.229c-3.14,3.465 -5.88,5.047 -10.326,6.029c-2.465,0.164 -5.631,0.064 -7.759,0.064l0,-5.976c1.658,0 3.018,0.041 4.375,-0.008c6.033,-0.215 11.364,-4.369 12.696,-10.245c0.915,-4.038 0.874,-8.125 -0.87,-12.048c-2.838,-6.383 -27.711,-39.836 -32.412,-46.076l-0.119,0c-3.406,-4.312 -8.191,-6.593 -14.35,-6.532c-5.979,0.06 -10.565,2.369 -13.856,6.532l-0.032,0c-4.669,6.24 -29.339,39.693 -32.177,46.076c-1.743,3.923 -1.784,8.01 -0.869,12.048c1.332,5.876 6.663,10.03 12.696,10.245c1.356,0.049 2.716,0.008 4.375,0.008l0,5.976c-2.129,0 -5.295,0.1 -7.759,-0.064c-4.447,-0.982 -7.187,-2.564 -10.326,-6.029c-6.244,-6.891 -6.887,-15.023 -3.968,-23.229c2.978,-8.373 31.993,-46.983 31.546,-46.141l0.027,0c3.326,-5.858 8.771,-9.408 15.6,-10.904c0.652,-0.143 3.089,-3.525 3.484,-3.635c0.002,-0.001 0.002,-0.002 0.004,-0.003c13.123,-19.75 34.397,-37.154 58.406,-37.154c39.798,0 72.07,34.466 72.179,77.029l0.005,0l0,7.167l-4.05,0l0,-7.167z" id="path98"/>
     </g>
     <path fill="#151344" fill-rule="nonzero" d="m276.825,513.352l1.311,0l0,-5.917l-1.311,0l0,5.917z" id="path100"/>
     <g id="g102">
      <path fill="#151344" fill-rule="nonzero" d="m283.57031,509.50589l-0.085,1.859l0,1.987l1.327,0l0,-5.917l-1.133,0l-2.941,3.787l0.051,-1.945l0,-1.842l-1.336,0l0,5.917l1.133,0l2.984,-3.846z" id="path104"/>
     </g>
     <g id="g106">
      <path fill="#151344" fill-rule="nonzero" d="m286.12891,507.4346l0,5.909l4.311,0l0,-1.209l-2.993,0l0,-1.403l2.807,0l0,-1.175l-2.807,0l0,-2.122l-1.318,0z" id="path108"/>
     </g>
     <g id="g110">
      <path fill="#151344" fill-rule="nonzero" d="m294.27539,512.3125c-1.125,0 -1.902,-0.846 -1.902,-1.919c0,-1.107 0.777,-1.911 1.902,-1.911c1.149,0 1.902,0.811 1.902,1.911c0,1.082 -0.753,1.919 -1.902,1.919m0,-5.021c-1.894,0 -3.195,1.174 -3.195,3.102c0,1.927 1.301,3.103 3.195,3.103c1.894,0 3.195,-1.176 3.195,-3.103c0,-1.928 -1.301,-3.102 -3.195,-3.102" id="path112"/>
     </g>
     <g id="g114">
      <path fill="#151344" fill-rule="nonzero" d="m299.76761,512.21869l0,-1.724l1.504,0c0.609,0 0.871,0.456 0.871,0.828c-0.008,0.406 -0.271,0.896 -0.888,0.896l-1.487,0zm2.443,-4.784l0.025,0l-1.513,1.944l-0.955,0l0,-1.944l-1.319,0l0,5.917l2.806,0c1.429,0 2.19,-0.955 2.19,-1.994c-0.009,-0.77 -0.238,-1.454 -1.37,-1.861l1.623,-1.961l-1.487,-0.101z" id="path116"/>
     </g>
     <g id="g118">
      <path fill="#151344" fill-rule="nonzero" d="m309.72269,511.543l-1.826,-2.3l-0.237,0l-1.766,2.317l0,-4.134l-1.319,0l0,5.918l1.513,0l1.725,-2.275l1.733,2.275l1.496,0l0,-5.918l-1.319,0l0,4.117z" id="path120"/>
     </g>
     <g id="g122">
      <path fill="#151344" fill-rule="nonzero" d="m315.0361,512.0166l-1.022,-2.401l2.037,0l-1.015,2.401zm1.514,-3.567l-3.035,0l-0.431,-1.015l-1.421,0l2.654,5.917l1.438,0l2.654,-5.917l-1.429,0l-0.43,1.015z" id="path124"/>
     </g>
     <g id="g126">
      <path fill="#151344" fill-rule="nonzero" d="m320.7402,506.14941c0.187,-0.228 0.879,-0.431 0.973,-0.051c0.076,0.322 -0.449,0.516 -0.744,0.288l-0.271,0.202l0.271,0.745c-1.75,0.27 -2.46,1.581 -2.469,3.017c-0.008,1.53 0.989,3.137 3.162,3.137c0.811,0 1.563,-0.313 2.172,-0.913l-0.828,-0.821c-0.356,0.347 -0.871,0.491 -1.344,0.491c-1.345,0 -1.868,-1.039 -1.86,-1.902c0.008,-0.862 0.473,-1.842 1.86,-1.842c0.473,0 1.099,0.211 1.454,0.566l0.819,-0.913c-0.574,-0.567 -1.301,-0.837 -2.113,-0.871l-0.102,-0.296c0.795,-0.042 0.956,-0.583 0.897,-1.015c-0.152,-1.14 -1.877,-1.048 -2.393,-0.253l0.516,0.431z" id="path128"/>
     </g>
     <g id="g130">
      <path fill="#151344" fill-rule="nonzero" d="m327.4072,512.0166l-1.022,-2.401l2.037,0l-1.015,2.401zm-1.605,2.215c0.252,0.541 0.616,0.921 1.225,0.761c0.414,-0.102 0.837,-0.541 1.039,0.007l0.753,-0.372c-0.312,-0.726 -0.693,-0.929 -1.175,-0.76c-0.49,0.161 -0.871,0.541 -1.125,-0.059l-0.717,0.423zm3.836,-6.205l-3.035,0l-0.431,-1.015l-1.421,0l2.654,5.917l0.721,0l2.654,-5.494l-1.429,0l0.287,0.592z" id="path132"/>
     </g>
     <g id="g134">
      <path fill="#151344" fill-rule="nonzero" d="m334.0488,512.3125c-1.124,0 -1.902,-0.846 -1.902,-1.919c0,-1.107 0.778,-1.911 1.902,-1.911c1.149,0 1.902,0.811 1.902,1.911c0,1.082 -0.753,1.919 -1.902,1.919m0,-5.021c-1.894,0 -3.195,1.174 -3.195,3.102c0,1.927 1.301,3.103 3.195,3.103c1.894,0 3.195,-1.176 3.195,-3.103c0,-1.928 -1.301,-3.102 -3.195,-3.102" id="path136"/>
     </g>
     <g id="g138">
      <path fill="#151344" fill-rule="nonzero" d="m345.32233,508.15329c-0.608,-0.601 -1.395,-0.871 -2.274,-0.871c-2.257,0 -3.153,1.454 -3.162,3.068c-0.008,1.531 0.99,3.137 3.162,3.137c0.811,0 1.564,-0.313 2.172,-0.913l-0.828,-0.82c-0.355,0.346 -0.871,0.49 -1.344,0.49c-1.344,0 -1.869,-1.039 -1.86,-1.902c0.009,-0.862 0.474,-1.842 1.86,-1.842c0.473,0 1.099,0.211 1.454,0.566l0.82,-0.913z" id="path140"/>
     </g>
     <path fill="#151344" fill-rule="nonzero" d="m346.105,513.352l1.311,0l0,-5.917l-1.311,0l0,5.917z" id="path142"/>
     <g id="g144">
      <path fill="#151344" fill-rule="nonzero" d="m353.23932,507.4346l-4.506,0l0,5.917l4.388,0l0,-1.208l-3.094,0l0,-1.142l2.916,0l0,-1.158l-2.916,0l0,-1.191l3.212,0l0,-1.218z" id="path146"/>
     </g>
     <g id="g148">
      <path fill="#151344" fill-rule="nonzero" d="m358.39362,509.50589l-0.085,1.859l0,1.987l1.327,0l0,-5.917l-1.133,0l-2.941,3.787l0.051,-1.945l0,-1.842l-1.336,0l0,5.917l1.133,0l2.984,-3.846z" id="path150"/>
     </g>
     <g id="g152">
      <path fill="#151344" fill-rule="nonzero" d="m362.2373,512.17679l-1.801,0l0,1.175l4.911,0l0,-1.175l-1.799,0l0,-4.742l-1.311,0l0,4.742z" id="path154"/>
     </g>
     <g id="g156">
      <path fill="#151344" fill-rule="nonzero" d="m368.2373,515.08499l-1.42,0l-0.626,-1.184l0,-0.059l1.066,0l0.98,1.192l0,0.051zm-2.088,-1.784l1.311,0l0,-5.866l-1.311,0l0,5.866z" id="path158"/>
     </g>
     <g id="g160">
      <path fill="#151344" fill-rule="nonzero" d="m368.77643,507.4346l0,5.909l4.312,0l0,-1.209l-2.993,0l0,-1.403l2.806,0l0,-1.175l-2.806,0l0,-2.122l-1.319,0z" id="path162"/>
     </g>
     <path fill="#151344" fill-rule="nonzero" d="m374.066,513.352l1.311,0l0,-5.917l-1.311,0l0,5.917z" id="path164"/>
     <g id="g166">
      <path fill="#151344" fill-rule="nonzero" d="m381.79199,508.15329c-0.608,-0.601 -1.395,-0.871 -2.274,-0.871c-2.257,0 -3.153,1.454 -3.162,3.068c-0.008,1.531 0.99,3.137 3.162,3.137c0.811,0 1.564,-0.313 2.172,-0.913l-0.828,-0.82c-0.355,0.346 -0.871,0.49 -1.344,0.49c-1.344,0 -1.869,-1.039 -1.86,-1.902c0.009,-0.862 0.474,-1.842 1.86,-1.842c0.473,0 1.099,0.211 1.454,0.566l0.82,-0.913z" id="path168"/>
     </g>
     <g id="g170">
      <path fill="#151344" fill-rule="nonzero" d="m385.25488,512.0166l-1.022,-2.401l2.037,0l-1.015,2.401zm1.514,-3.567l-3.035,0l-0.431,-1.015l-1.421,0l2.654,5.917l1.438,0l2.654,-5.917l-1.429,0l-0.43,1.015z" id="path172"/>
     </g>
     <g id="g174">
      <path fill="#151344" fill-rule="nonzero" d="m392.30267,510.31741l1.471,0c0.633,0 0.946,0.414 0.946,0.888c0,0.472 -0.321,0.895 -0.946,0.895l-1.471,0l0,-1.783zm0,-1.209l0,-1.674l-1.319,0l0,5.917l2.79,0c1.512,0 2.265,-0.98 2.265,-2.121c0,-1.184 -0.76,-2.105 -2.265,-2.122l-1.471,0z" id="path176"/>
     </g>
     <g id="g178">
      <path fill="#151344" fill-rule="nonzero" d="m399.12109,512.0166l-1.022,-2.401l2.037,0l-1.015,2.401zm1.514,-3.567l-3.035,0l-0.431,-1.015l-1.421,0l2.654,5.917l1.438,0l2.654,-5.917l-1.429,0l-0.43,1.015z" id="path180"/>
     </g>
     <g id="g182">
      <path fill="#151344" fill-rule="nonzero" d="m404.43652,512.21869l0,-1.724l1.504,0c0.609,0 0.871,0.456 0.871,0.828c-0.009,0.406 -0.271,0.896 -0.888,0.896l-1.487,0zm2.444,-4.784l0.024,0l-1.513,1.944l-0.955,0l0,-1.944l-1.319,0l0,5.917l2.806,0c1.429,0 2.19,-0.955 2.19,-1.994c-0.009,-0.77 -0.237,-1.454 -1.369,-1.861l1.623,-1.961l-1.487,-0.101z" id="path184"/>
     </g>
     <g id="g186">
      <path fill="#151344" fill-rule="nonzero" d="m411.92291,512.0166l-1.022,-2.401l2.037,0l-1.015,2.401zm1.514,-3.567l-3.035,0l-0.431,-1.015l-1.421,0l2.654,5.917l1.438,0l2.654,-5.917l-1.429,0l-0.43,1.015z" id="path188"/>
     </g>
     <g id="g190">
      <path fill="#151344" fill-rule="nonzero" d="m420.06049,512.0166l-1.022,-2.401l2.037,0l-1.015,2.401zm1.514,-3.567l-3.035,0l-0.431,-1.015l-1.421,0l2.654,5.917l1.438,0l2.654,-5.917l-1.429,0l-0.43,1.015z" id="path192"/>
     </g>
     <g id="g194">
      <path fill="#151344" fill-rule="nonzero" d="m425.37598,510.31741l1.471,0c0.633,0 0.946,0.414 0.946,0.888c0,0.472 -0.321,0.895 -0.946,0.895l-1.471,0l0,-1.783zm0,-1.209l0,-1.674l-1.319,0l0,5.917l2.79,0c1.512,0 2.265,-0.98 2.265,-2.121c0,-1.184 -0.76,-2.105 -2.265,-2.122l-1.471,0z" id="path196"/>
     </g>
     <g id="g198">
      <path fill="#151344" fill-rule="nonzero" d="m432.82031,512.3125c-1.124,0 -1.902,-0.846 -1.902,-1.919c0,-1.107 0.778,-1.911 1.902,-1.911c1.149,0 1.902,0.811 1.902,1.911c0,1.082 -0.753,1.919 -1.902,1.919m0,-5.021c-1.894,0 -3.195,1.174 -3.195,3.102c0,1.927 1.301,3.103 3.195,3.103c1.894,0 3.195,-1.176 3.195,-3.103c0,-1.928 -1.301,-3.102 -3.195,-3.102" id="path200"/>
     </g>
     <path fill="#151344" fill-rule="nonzero" d="m436.993,513.352l1.311,0l0,-5.917l-1.311,0l0,5.917z" id="path202"/>
     <g id="g204">
      <path fill="#151344" fill-rule="nonzero" d="m442.47852,512.3125c-1.124,0 -1.902,-0.846 -1.902,-1.919c0,-1.107 0.778,-1.911 1.902,-1.911c1.149,0 1.902,0.811 1.902,1.911c0,1.082 -0.753,1.919 -1.902,1.919m0,-5.021c-1.894,0 -3.195,1.174 -3.195,3.102c0,1.927 1.301,3.103 3.195,3.103c1.894,0 3.195,-1.176 3.195,-3.103c0,-1.928 -1.301,-3.102 -3.195,-3.102" id="path206"/>
     </g>
     <g id="g208">
      <path fill="#151344" fill-rule="nonzero" d="m451.0625,512.0166l-1.022,-2.401l2.037,0l-1.015,2.401zm1.514,-3.567l-3.035,0l-0.431,-1.015l-1.421,0l2.654,5.917l1.438,0l2.654,-5.917l-1.429,0l-0.43,1.015z" id="path210"/>
     </g>
     <g id="g212">
      <path fill="#151344" fill-rule="nonzero" d="m457.70508,512.3125c-1.124,0 -1.902,-0.846 -1.902,-1.919c0,-1.107 0.778,-1.911 1.902,-1.911c1.149,0 1.902,0.811 1.902,1.911c0,1.082 -0.753,1.919 -1.902,1.919m0,-5.021c-1.894,0 -3.195,1.174 -3.195,3.102c0,1.927 1.301,3.103 3.195,3.103c1.894,0 3.195,-1.176 3.195,-3.103c0,-1.928 -1.301,-3.102 -3.195,-3.102" id="path214"/>
     </g>
     <g id="g216">
      <path fill="#151344" fill-rule="nonzero" d="m465.37793,511.92291c-0.33,0.347 -0.904,0.499 -1.369,0.499c-0.584,0 -1.057,-0.245 -1.057,-0.65c0,-0.541 0.516,-0.643 1.277,-0.71c1.166,-0.102 2.273,-0.55 2.273,-1.919c0,-1.32 -1.217,-1.894 -2.493,-1.903c-1.024,-0.008 -2.089,0.389 -2.587,1.217l0.786,0.82c0.456,-0.583 1.209,-0.836 1.809,-0.836c0.702,0 1.183,0.279 1.183,0.702c0.009,0.498 -0.388,0.726 -1.191,0.794c-1.252,0.118 -2.367,0.431 -2.351,1.826c0.009,1.175 1.124,1.801 2.342,1.801c0.913,0 1.598,-0.204 2.206,-0.913l-0.828,-0.728z" id="path218"/>
     </g>
     <g id="g220">
      <path fill="#151344" fill-rule="nonzero" d="m474.55469,511.543l-1.826,-2.3l-0.237,0l-1.766,2.317l0,-4.134l-1.319,0l0,5.918l1.513,0l1.725,-2.275l1.732,2.275l1.496,0l0,-5.918l-1.318,0l0,4.117z" id="path222"/>
     </g>
     <g id="g224">
      <path fill="#151344" fill-rule="nonzero" d="m480.81641,515.16891l-1.421,0l-0.625,-1.183l0,-0.059l1.066,0l0.98,1.192l0,0.05zm0.879,-7.784l-4.506,0l0,5.917l4.388,0l0,-1.208l-3.094,0l0,-1.142l2.916,0l0,-1.158l-2.916,0l0,-1.192l3.212,0l0,-1.217z" id="path226"/>
     </g>
     <g id="g228">
      <path fill="#151344" fill-rule="nonzero" d="m484.03418,508.65231l1.125,0c1.284,0 1.64,0.946 1.64,1.8c0,0.854 -0.407,1.708 -1.64,1.708l-1.125,0l0,-3.508zm1.125,4.699c2.037,0 2.941,-1.369 2.941,-2.916c0,-1.547 -0.871,-3.001 -2.941,-3.001l-2.427,0l0,5.917l2.427,0z" id="path230"/>
     </g>
     <path fill="#151344" fill-rule="nonzero" d="m489.095,513.352l1.311,0l0,-5.917l-1.311,0l0,5.917z" id="path232"/>
     <g id="g234">
      <path fill="#151344" fill-rule="nonzero" d="m496.82031,508.15329c-0.608,-0.601 -1.395,-0.871 -2.274,-0.871c-2.257,0 -3.153,1.454 -3.162,3.068c-0.008,1.531 0.99,3.137 3.162,3.137c0.811,0 1.564,-0.313 2.172,-0.913l-0.828,-0.82c-0.355,0.346 -0.871,0.49 -1.344,0.49c-1.344,0 -1.869,-1.039 -1.86,-1.902c0.009,-0.862 0.474,-1.842 1.86,-1.842c0.473,0 1.099,0.211 1.454,0.566l0.82,-0.913z" id="path236"/>
     </g>
     <g id="g238">
      <path fill="#151344" fill-rule="nonzero" d="m500.30078,512.3125c-1.124,0 -1.902,-0.846 -1.902,-1.919c0,-1.107 0.778,-1.911 1.902,-1.911c1.149,0 1.902,0.811 1.902,1.911c0,1.082 -0.753,1.919 -1.902,1.919m0,-5.021c-1.894,0 -3.195,1.174 -3.195,3.102c0,1.927 1.301,3.103 3.195,3.103c1.894,0 3.195,-1.176 3.195,-3.103c0,-1.928 -1.301,-3.102 -3.195,-3.102" id="path240"/>
     </g>
     <g id="g242">
      <path fill="#151344" fill-rule="nonzero" d="m507.97357,511.92291c-0.33,0.347 -0.904,0.499 -1.369,0.499c-0.584,0 -1.057,-0.245 -1.057,-0.65c0,-0.541 0.516,-0.643 1.277,-0.71c1.166,-0.102 2.273,-0.55 2.273,-1.919c0,-1.32 -1.217,-1.894 -2.493,-1.903c-1.024,-0.008 -2.089,0.389 -2.587,1.217l0.786,0.82c0.456,-0.583 1.209,-0.836 1.809,-0.836c0.702,0 1.183,0.279 1.183,0.702c0.009,0.498 -0.388,0.726 -1.191,0.794c-1.252,0.118 -2.367,0.431 -2.351,1.826c0.009,1.175 1.124,1.801 2.342,1.801c0.913,0 1.598,-0.204 2.206,-0.913l-0.828,-0.728z" id="path244"/>
     </g>
    </g>
   </g>
  </g>
 </g>
</svg>