<svg id="Layer_3" data-name="Layer 3" xmlns="http://www.w3.org/2000/svg" viewBox="0 0 80.41 101.71"><defs><style>.cls-1{fill:#e9af00;}</style></defs><title>virus-amarelo</title><path class="cls-1" d="M343.89,282.22a30.36,30.36,0,1,0,28.73-31.91A30.37,30.37,0,0,0,343.89,282.22Z" transform="translate(-334.21 -230.35)"/><path class="cls-1" d="M377.67,237.44a3.1,3.1,0,0,0-3.34-2.87c-1.71,0-3.06.68-3.24,2-.54,3.53,5.83,2,5.93,9.24h-4.84c0-4.84-7.31-3.84-6.09-10.27.72-3.46,3.93-5.15,8.24-5.15,4.78,0,8.18,2.53,8.21,7.09Zm-.25,12.7c0,3.78-5.74,3.78-5.74,0S377.42,246.34,377.42,250.14Z" transform="translate(-334.21 -230.35)"/><path class="cls-1" d="M345.15,249.52a3.1,3.1,0,0,0-4.38.46c-1.18,1.25-1.6,2.7-.8,3.71,2.2,2.81,5.44-2.9,10.79,2l-3.31,3.53c-3.53-3.32-7.81,2.68-11.65-2.62-2-2.9-1.06-6.39,1.9-9.53,3.28-3.47,7.45-4.22,10.79-1.11Zm9.07,8.9c2.75,2.59-1.19,6.77-3.94,4.18S351.45,255.81,354.22,258.42Z" transform="translate(-334.21 -230.35)"/><path class="cls-1" d="M400.22,265c-2.59,2.75-6.77-1.19-4.18-3.94S402.83,262.17,400.22,265Zm8.9-9.08a3.1,3.1,0,0,0-.46-4.38c-1.25-1.18-2.7-1.6-3.71-.8-2.81,2.21,2.9,5.44-2,10.8l-3.53-3.32c3.32-3.52-2.68-7.81,2.62-11.65,2.9-2,6.39-1.05,9.53,1.9,3.47,3.28,4.22,7.45,1.11,10.79Z" transform="translate(-334.21 -230.35)"/><path class="cls-1" d="M370.74,325a3.11,3.11,0,0,0,3.34,2.88c1.72,0,3.06-.69,3.25-2,.53-3.53-5.84-2-5.93-9.24h4.84c0,4.84,7.3,3.84,6.08,10.27-.71,3.46-3.93,5.15-8.24,5.15-4.77,0-8.18-2.53-8.21-7.09Zm.25-12.7c0-3.78,5.75-3.78,5.75,0S371,316.08,371,312.27Z" transform="translate(-334.21 -230.35)"/><path class="cls-1" d="M394.61,304.66c-2.75-2.59,1.19-6.77,3.94-4.18S397.38,307.27,394.61,304.66Zm9.08,8.9a3.1,3.1,0,0,0,4.38-.46c1.17-1.25,1.59-2.7.79-3.72-2.2-2.8-5.43,2.9-10.79-2l3.32-3.52c3.52,3.32,7.8-2.68,11.65,2.62,2,2.9,1,6.39-1.91,9.53-3.27,3.47-7.45,4.22-10.79,1.11Z" transform="translate(-334.21 -230.35)"/><path class="cls-1" d="M339.71,308.54a3.11,3.11,0,0,0,.47,4.38c1.25,1.18,2.69,1.6,3.71.8,2.8-2.2-2.9-5.44,2-10.79l3.52,3.32c-3.32,3.52,2.68,7.8-2.61,11.65-2.9,2-6.4,1.05-9.53-1.91-3.48-3.27-4.22-7.45-1.12-10.79Zm8.9-9.07c2.59-2.75,6.77,1.19,4.18,3.94S346,302.24,348.61,299.47Z" transform="translate(-334.21 -230.35)"/></svg>